<?xml version="1.0" standalone="no"?>
<!DOCTYPE svg PUBLIC "-//W3C//DTD SVG 20010904//EN"
 "http://www.w3.org/TR/2001/REC-SVG-20010904/DTD/svg10.dtd">
<svg version="1.0" xmlns="http://www.w3.org/2000/svg"
 width="593.000000pt" height="593.000000pt" viewBox="0 0 593.000000 593.000000"
 preserveAspectRatio="xMidYMid meet">
<metadata>
Created by potrace 1.11, written by Peter Selinger 2001-2013
</metadata>
<g transform="translate(0.000000,593.000000) scale(0.100000,-0.100000)"
fill="#000000" stroke="none">
<path d="M2411 5909 c-65 -22 -116 -60 -169 -124 -41 -49 -75 -165 -73 -253 3
-212 191 -385 389 -360 179 24 313 184 314 375 0 52 -20 151 -33 158 -5 4 -9
15 -9 26 0 10 -3 19 -7 19 -5 0 -19 18 -32 40 -14 22 -33 42 -43 46 -10 3 -18
9 -18 14 0 10 -62 50 -87 55 -10 2 -29 7 -43 13 -41 15 -131 11 -189 -9z m80
-136 c13 -16 12 -17 -3 -4 -10 7 -18 15 -18 17 0 8 8 3 21 -13z"/>
<path d="M3392 5908 c-48 -13 -107 -76 -120 -131 -50 -196 183 -324 299 -164
100 138 -20 336 -179 295z"/>
<path d="M3750 5738 c-90 -46 -134 -160 -98 -257 40 -105 130 -157 229 -131
83 23 148 118 143 210 -8 152 -147 242 -274 178z"/>
<path d="M1716 5569 c-108 -25 -183 -136 -172 -253 3 -32 10 -64 16 -71 5 -6
7 -14 4 -18 -8 -8 90 -104 114 -111 21 -7 21 -7 -3 -42 -34 -49 -49 -142 -34
-196 4 -16 5 -29 1 -29 -4 -1 -18 -3 -32 -4 -65 -8 -299 -47 -330 -55 -19 -5
-51 -12 -70 -15 -63 -11 -124 -26 -195 -47 -38 -12 -74 -22 -80 -24 -29 -6
-150 -56 -203 -84 -111 -58 -161 -122 -156 -200 7 -93 14 -130 37 -180 38 -84
84 -127 226 -209 l73 -43 -54 -53 c-49 -48 -123 -132 -139 -157 -4 -6 -45 1
-105 18 -130 35 -261 37 -345 5 -96 -37 -183 -129 -241 -257 -34 -74 -33 -193
3 -254 36 -60 79 -104 142 -144 53 -33 167 -86 184 -86 6 0 0 -41 -12 -95 -13
-53 -23 -98 -23 -100 -1 -8 -11 -66 -17 -100 -3 -16 -8 -57 -11 -90 -3 -33 -7
-71 -10 -85 -23 -122 -23 -531 1 -650 2 -13 8 -42 11 -65 4 -22 8 -49 10 -60
22 -136 115 -379 198 -520 22 -38 45 -78 51 -87 49 -84 178 -242 275 -338 123
-121 253 -223 404 -317 93 -57 316 -173 334 -173 6 0 21 -15 33 -32 61 -91
182 -162 380 -222 113 -34 325 -78 439 -91 30 -4 69 -8 85 -10 228 -27 774
-27 935 -1 14 3 52 8 85 12 76 8 82 9 125 18 19 4 42 8 50 10 294 52 552 171
585 269 4 9 11 17 16 17 35 0 458 228 467 252 2 4 10 8 18 8 8 0 14 5 14 10 0
6 4 10 10 10 5 0 18 6 27 14 10 8 53 42 95 75 116 93 248 226 340 346 72 93
139 200 191 305 63 128 98 219 133 345 2 6 6 24 9 40 3 17 8 36 11 44 2 8 7
30 10 50 3 20 7 42 9 49 26 77 27 641 1 777 -2 11 -6 41 -10 66 -8 56 -15 96
-21 129 -3 14 -7 34 -9 45 -2 11 -11 47 -20 80 -8 32 -14 60 -13 60 1 1 29 12
62 25 296 117 377 308 233 548 -38 63 -125 146 -174 167 -71 29 -188 37 -289
18 -22 -4 -42 -7 -45 -8 -28 -4 -108 -30 -117 -38 -14 -10 -38 4 -63 38 -8 11
-45 50 -82 88 -74 73 -75 78 -13 105 56 25 154 94 178 125 44 60 61 107 73
207 7 52 7 45 5 91 -2 83 -144 184 -353 253 -94 31 -288 82 -345 91 -49 8 -59
17 -37 36 14 11 47 66 49 79 0 3 4 10 8 17 4 6 10 41 13 77 11 130 -61 258
-174 309 -146 65 -322 -25 -370 -189 -13 -44 -17 -117 -8 -151 3 -13 8 -32 10
-42 3 -11 10 -30 16 -42 7 -12 8 -19 2 -15 -6 3 -43 9 -84 12 -40 3 -76 8 -80
12 -4 4 -8 22 -10 40 -1 17 -6 32 -10 32 -4 0 -8 9 -8 19 0 26 -63 87 -105
101 -92 30 -199 -37 -217 -135 -4 -28 -11 -31 -61 -27 l-44 4 5 44 c3 29 -1
60 -13 90 -18 49 -70 104 -97 104 -20 0 -32 16 -18 25 17 10 42 66 47 104 21
156 -65 279 -202 287 -152 9 -274 -159 -223 -307 22 -64 67 -118 121 -144 28
-14 57 -25 64 -25 11 0 11 -6 -2 -30 -8 -16 -15 -35 -15 -43 0 -17 -21 -27
-56 -27 -28 0 -103 -28 -125 -47 -8 -7 -30 -13 -48 -13 -28 0 -32 3 -26 18 4
9 10 40 12 67 16 162 -170 258 -285 148 -50 -47 -69 -131 -47 -196 11 -33 11
-37 -4 -38 -9 0 -65 -3 -126 -5 -60 -2 -116 -6 -122 -9 -17 -6 -16 0 4 38 10
19 17 56 17 92 0 49 -5 68 -27 102 -61 95 -179 110 -256 33 l-36 -37 -39 29
c-21 15 -47 28 -57 28 -20 0 -26 29 -10 46 23 23 29 132 10 179 -7 17 -12 33
-11 37 1 3 -17 25 -39 48 -61 63 -129 86 -203 69z m-1148 -1845 c45 -15 82
-30 82 -34 0 -3 -17 -33 -39 -66 -69 -106 -148 -280 -216 -471 -11 -31 -195
113 -195 152 0 8 -4 15 -8 15 -13 0 -18 114 -9 172 8 43 64 139 111 191 78 85
122 91 274 41z m4987 22 c61 -26 132 -112 177 -217 31 -70 30 -155 -2 -221
-20 -43 -90 -114 -130 -131 -8 -4 -25 -14 -37 -23 -26 -18 -21 -25 -68 101
-40 105 -119 263 -178 352 l-53 80 31 13 c53 22 179 59 203 59 12 1 38 -5 57
-13z"/>
</g>
</svg>
